<?xml version="1.0" encoding="UTF-8" standalone="no"?>
<!-- Created with Inkscape (http://www.inkscape.org/) -->

<svg
   width="91mm"
   height="50mm"
   viewBox="0 0 91 50"
   version="1.1"
   id="svg1"
   inkscape:version="1.3.2 (091e20e, 2023-11-25, custom)"
   sodipodi:docname="client2.svg"
   xmlns:inkscape="http://www.inkscape.org/namespaces/inkscape"
   xmlns:sodipodi="http://sodipodi.sourceforge.net/DTD/sodipodi-0.dtd"
   xmlns="http://www.w3.org/2000/svg"
   xmlns:svg="http://www.w3.org/2000/svg">
  <sodipodi:namedview
     id="namedview1"
     pagecolor="#ffffff"
     bordercolor="#000000"
     borderopacity="0.25"
     inkscape:showpageshadow="2"
     inkscape:pageopacity="0.0"
     inkscape:pagecheckerboard="0"
     inkscape:deskcolor="#d1d1d1"
     inkscape:document-units="mm"
     inkscape:zoom="0.74564394"
     inkscape:cx="396.30175"
     inkscape:cy="561.25984"
     inkscape:window-width="1920"
     inkscape:window-height="1051"
     inkscape:window-x="-9"
     inkscape:window-y="-9"
     inkscape:window-maximized="1"
     inkscape:current-layer="layer1" />
  <defs
     id="defs1">
    <rect
       x="231.86349"
       y="580.37"
       width="295.87488"
       height="73.49456"
       id="rect4" />
    <rect
       x="231.86349"
       y="580.37"
       width="295.87488"
       height="73.49456"
       id="rect5" />
  </defs>
  <g
     inkscape:label="Layer 1"
     inkscape:groupmode="layer"
     id="layer1">
    <g
       id="g2"
       transform="translate(-53.214232,-92.702444)">
      <path
         style="fill:#66b130;fill-opacity:1"
         d="m 112.41996,115.06004 c 0.01,-0.59314 2.77377,-5.90944 4.15214,-7.98561 1.45073,-2.18514 5.10123,-6.1667 6.82426,-7.443128 l 0.79375,-0.58802 -0.88287,0.48181 c -1.26143,0.688388 -4.88353,4.112028 -6.50898,6.152328 -1.36013,1.70728 -4.08253,5.66843 -5.05848,7.3602 -0.27283,0.47295 -0.57317,0.8599 -0.66744,0.8599 -0.38627,0 -0.8347,-3.28116 -0.71976,-5.26657 0.30618,-5.28914 4.35862,-9.203698 11.35682,-10.970418 1.36439,-0.34445 3.28438,-0.71104 4.26665,-0.81466 l 1.78594,-0.18839 -0.002,1.93929 c -0.003,2.918198 -0.44484,6.186508 -1.05776,7.824678 -1.50461,4.02143 -4.57392,6.88035 -8.70146,8.10498 -1.69125,0.50179 -5.58628,0.87421 -5.5808,0.53361 z m -4.99395,-2.49859 c -4.29769,-1.52617 -6.65153,-5.2252 -6.65153,-10.4528 v -2.545138 l 1.12449,0.17976 c 3.79709,0.607018 7.19906,1.914198 8.49084,3.262528 l 0.73334,0.76544 -0.54412,1.61521 c -0.29927,0.88836 -0.54413,1.79756 -0.54413,2.02043 0,0.68633 -0.34317,0.4775 -1.82212,-1.10879 -1.54474,-1.65685 -1.5111,-1.55865 0.29202,0.85255 0.98432,1.31628 1.21794,1.85684 1.36741,3.16395 0.0992,0.86704 0.24875,1.84931 0.33245,2.18281 0.13275,0.52889 0.0556,0.6039 -0.60409,0.58704 -0.41596,-0.0106 -1.39451,-0.24598 -2.17456,-0.52299 z"
         id="path2"
         sodipodi:nodetypes="ssscssssssscssssssscsscsssscsss" />
      <text
         xml:space="preserve"
         transform="matrix(1.4441837,0,0,1.4441837,-275.95108,-729.10088)"
         id="text3"
         style="font-style:normal;font-variant:normal;font-weight:bold;font-stretch:normal;font-family:'Segoe UI Variable';-inkscape-font-specification:'Segoe UI Variable Bold';letter-spacing:0px;white-space:pre;shape-inside:url(#rect4);fill:#66b130;fill-opacity:1"><tspan
           x="231.86328"
           y="591.17819"
           id="tspan5"><tspan
   style="fill:#1a1a1a"
   id="tspan4">Agri</tspan>acres</tspan></text>
      <text
         xml:space="preserve"
         transform="matrix(0.782981,0,0,0.782981,-122.32956,-326.94069)"
         id="text4"
         style="font-style:normal;font-variant:normal;font-weight:normal;font-stretch:normal;font-family:Serif;-inkscape-font-specification:Serif;letter-spacing:0px;white-space:pre;shape-inside:url(#rect5);fill:#1a1a1a"><tspan
           x="231.86328"
           y="591.02059"
           id="tspan6">A Cledent Company</tspan></text>
    </g>
  </g>
</svg>
